<?xml version="1.0" standalone="no"?><!DOCTYPE svg PUBLIC "-//W3C//DTD SVG 1.1//EN" "http://www.w3.org/Graphics/SVG/1.1/DTD/svg11.dtd"><svg t="1558630039685" class="icon" style="" viewBox="0 0 1093 1024" version="1.1" xmlns="http://www.w3.org/2000/svg" p-id="2803" xmlns:xlink="http://www.w3.org/1999/xlink" width="213.4765625" height="200"><defs><style type="text/css"></style></defs><path d="M1024 853.333333 477.866667 853.333333 307.2 1024 273.066667 1024C235.383467 1024 204.8 993.416533 204.8 955.733333L204.8 853.333333 68.266667 853.333333C30.583467 853.333333 0 822.749867 0 785.066667L0 68.266667C0 30.583467 30.583467 0 68.266667 0L1024 0C1061.6832 0 1092.266667 30.583467 1092.266667 68.266667L1092.266667 785.066667C1092.266667 822.749867 1061.6832 853.333333 1024 853.333333L1024 853.333333ZM989.866667 102.4 102.4 102.4 102.4 750.933333 307.2 750.933333 307.2 879.172267 435.438933 750.933333 989.866667 750.933333 989.866667 102.4 989.866667 102.4Z" p-id="2804"></path><path d="M273.066667 409.6a2 2 0 1 0 136.533333 0 2 2 0 1 0-136.533333 0Z" p-id="2805"></path><path d="M477.866667 409.6a2 2 0 1 0 136.533333 0 2 2 0 1 0-136.533333 0Z" p-id="2806"></path><path d="M682.666667 409.6a2 2 0 1 0 136.533333 0 2 2 0 1 0-136.533333 0Z" p-id="2807"></path></svg>