<?xml version="1.0" standalone="no"?><!DOCTYPE svg PUBLIC "-//W3C//DTD SVG 1.1//EN" "http://www.w3.org/Graphics/SVG/1.1/DTD/svg11.dtd"><svg t="1558544254217" class="icon" style="" viewBox="0 0 1024 1024" version="1.1" xmlns="http://www.w3.org/2000/svg" p-id="5791" xmlns:xlink="http://www.w3.org/1999/xlink" width="200" height="200"><defs><style type="text/css"></style></defs><path d="M512 512m-512 0a512 512 0 1 0 1024 0 512 512 0 1 0-1024 0Z" fill="#1A2B4A" p-id="5792"></path><path d="M570.957576 515.10303c-15.515152 6.206061-37.236364 9.309091-58.957576 9.309091s-40.339394-3.10303-58.957576-9.309091L248.242424 434.424242v186.181819c0 52.751515 43.442424 93.090909 96.19394 93.090909h335.127272c52.751515 0 96.193939-40.339394 96.19394-93.090909v-186.181819l-204.8 80.678788zM251.345455 384.775758c9.309091-43.442424 49.648485-74.472727 93.090909-74.472728h335.127272c46.545455 0 83.781818 31.030303 93.090909 74.472728l-220.315151 86.884848c-21.721212 9.309091-58.957576 9.309091-80.678788 0l-220.315151-86.884848z" fill="#FFFFFF" p-id="5793"></path></svg>