<?xml version="1.0" standalone="no"?><!DOCTYPE svg PUBLIC "-//W3C//DTD SVG 1.1//EN" "http://www.w3.org/Graphics/SVG/1.1/DTD/svg11.dtd"><svg t="1558544114539" class="icon" style="" viewBox="0 0 1024 1024" version="1.1" xmlns="http://www.w3.org/2000/svg" p-id="5042" xmlns:xlink="http://www.w3.org/1999/xlink" width="200" height="200"><defs><style type="text/css"></style></defs><path d="M721.92 501.76c-30.72-5.12-15.36-20.48-15.36-20.48s30.72-46.08-5.12-81.92c-40.96-40.96-148.48 5.12-148.48 5.12-40.96 10.24-30.72-5.12-25.6-35.84 0-35.84-10.24-97.28-117.76-61.44-107.52 35.84-194.56 158.72-194.56 158.72C148.48 552.96 158.72 614.4 158.72 614.4c15.36 143.36 168.96 184.32 291.84 189.44 128 10.24 296.96-40.96 348.16-148.48 46.08-107.52-46.08-148.48-76.8-153.6zM455.68 768c-122.88 5.12-225.28-56.32-225.28-138.24s102.4-148.48 225.28-153.6c122.88-5.12 225.28 46.08 225.28 128s-97.28 158.72-225.28 163.84z" fill="#D72719" p-id="5043"></path><path d="M430.08 527.36c128-15.36 148.48 102.4 107.52 153.6-35.84 51.2-112.64 71.68-189.44 30.72-35.84-20.48-35.84-56.32-35.84-56.32s-5.12-112.64 117.76-128z m-30.72 163.84c25.6-5.12 40.96-20.48 40.96-40.96s-15.36-35.84-46.08-30.72c-20.48 5.12-35.84 25.6-35.84 40.96 0 20.48 15.36 35.84 40.96 30.72z m76.8-61.44c5.12-5.12 10.24-15.36 5.12-20.48-5.12-5.12-15.36-10.24-25.6 0-5.12 0-10.24 10.24-5.12 20.48 5.12 5.12 15.36 5.12 25.6 0z" fill="#1E1A17" p-id="5044"></path><path d="M783.36 450.56c-10.24 0-20.48-10.24-20.48-20.48 0 0 20.48-92.16-71.68-71.68-10.24 0-20.48-10.24-20.48-20.48s10.24-20.48 20.48-20.48c0 0 128-25.6 112.64 112.64 0 15.36-10.24 20.48-20.48 20.48zM768 215.04c81.92 20.48 189.44 92.16 138.24 256-5.12 25.6-15.36 25.6-30.72 25.6s-30.72-10.24-30.72-25.6 5.12-30.72 5.12-30.72c0-5.12 15.36-40.96-10.24-97.28-46.08-76.8-138.24-76.8-148.48-71.68-10.24 5.12-25.6 5.12-25.6 5.12-15.36 0-30.72-15.36-30.72-30.72s10.24-25.6 20.48-30.72h5.12c20.48-5.12 61.44-10.24 107.52 0z" fill="#E5781A" p-id="5045"></path></svg>